<?xml version="1.0" encoding="utf-8"?>
<!-- Generator: Adobe Illustrator 16.0.0, SVG Export Plug-In . SVG Version: 6.00 Build 0)  -->
<!DOCTYPE svg PUBLIC "-//W3C//DTD SVG 1.1//EN" "http://www.w3.org/Graphics/SVG/1.1/DTD/svg11.dtd">
<svg version="1.1" id="Layer_1" xmlns="http://www.w3.org/2000/svg" xmlns:xlink="http://www.w3.org/1999/xlink" x="0px" y="0px"
	 width="612px" height="792px" viewBox="0 0 612 792" enable-background="new 0 0 612 792" xml:space="preserve">
<circle fill="#C6B57F" stroke="#C6B57F" stroke-miterlimit="10" cx="306" cy="400.182" r="132.955"/>
<ellipse fill="#D3CB98" stroke="#D3CB98" stroke-miterlimit="10" cx="305.137" cy="401.887" rx="103.136" ry="102.842"/>
<g id="Your_Icon">
	<polyline fill="#010101" points="261.207,446.484 261.172,424.984 258,417.771 257.968,403.3 256.299,403.3 254.636,403.3 
		254.603,417.771 251.431,424.984 251.397,446.484 	"/>
	<polyline fill="#010101" points="249.324,446.484 249.288,424.984 246.116,417.771 246.083,403.3 244.417,403.3 242.753,403.3 
		242.718,417.771 239.547,424.984 239.51,446.484 	"/>
	<polyline fill="#010101" points="237.439,446.484 237.405,424.984 234.231,417.771 234.197,403.3 232.534,403.3 230.869,403.3 
		230.837,417.771 227.664,424.984 227.628,446.484 	"/>
	<polyline fill="#010101" points="377.587,446.366 377.549,424.87 374.378,417.655 374.349,403.182 372.679,403.182 
		371.013,403.182 370.982,417.655 367.81,424.87 367.775,446.366 	"/>
	<ellipse fill="#010101" cx="302.409" cy="356.749" rx="12.749" ry="16.121"/>
	<path fill="#010101" d="M338.343,413.406c0-2.128,1.356-3.848,3.031-3.848c1.676,0,3.032,1.72,3.032,3.848"/>
	<path fill="#010101" d="M345.649,413.406c0-2.128,1.358-3.848,3.034-3.848c1.674,0,3.033,1.72,3.033,3.848"/>
	<path fill="#010101" d="M353.104,413.406c0-2.128,1.359-3.848,3.034-3.848s3.034,1.72,3.034,3.848"/>
	<path fill="#010101" d="M360.152,413.406c0-2.128,1.359-3.848,3.031-3.848c1.678,0,3.035,1.72,3.035,3.848"/>
	<ellipse fill="#010101" cx="344.942" cy="406.158" rx="2.874" ry="3.634"/>
	<ellipse fill="#010101" cx="352.209" cy="405.865" rx="2.874" ry="3.635"/>
	<ellipse fill="#010101" cx="359.721" cy="405.865" rx="2.875" ry="3.635"/>
	<path fill="#010101" d="M338.268,414.28c0,0.005-0.001,0.013-0.001,0.021c0,7.812,6.284,14.145,14.033,14.145
		c7.751,0,14.032-6.332,14.032-14.145c0-0.008,0-0.016,0-0.021H338.268z"/>
	<path fill="#010101" d="M357.041,446.366c-0.07-0.03-0.11-0.049-0.11-0.049c-4.777-41.787-9.491,0-9.491,0
		c-0.031,0.021-0.064,0.035-0.096,0.049H357.041z"/>
	<ellipse fill="#010101" cx="302.409" cy="384.405" rx="2.62" ry="3.443"/>
	<path fill="#010101" d="M339.759,440.964c-0.501-1.801-0.913-3.62-1.336-5.458c-0.928-4.074-1.913-8.141-2.886-12.201
		c-0.565-2.353-1.11-4.708-1.686-7.053c-3.681-15.039-5.533-33.245-16.345-37.965c-2.271-0.989-5.321-1.463-9.81-1.654l4.034,26.024
		l-9.325,0.049l-9.157-0.017l3.859-26.06c-4.492,0.189-7.56,0.663-9.83,1.656c-10.811,4.721-12.667,22.926-16.346,37.965
		c-0.993,4.06-1.969,8.126-2.928,12.202c-0.877,3.729-1.834,7.541-2.635,11.299c-0.498,2.337-1.111,5.024-0.488,6.921h10.559
		c0.545-1.896,0.961-4.009,1.499-6.284c2.893-12.225,5.622-22.886,8.34-33.994c0.265-1.086,0.47-1.457,0.877-3.354h2.313
		c-0.302,1.896-0.991,5.7-1.523,8.041c-2.761,12.131-5.531,24.209-8.344,35.592h47.581c-2.812-11.383-5.582-23.476-8.344-35.604
		c-0.531-2.329-1.214-6.133-1.52-8.029h2.319c0.359,1.896,0.604,2.215,0.866,3.291c2.717,11.108,5.447,21.932,8.341,34.162
		c0.54,2.273,0.956,4.283,1.501,6.18H339.9c0.05,0,0.097-0.452,0.131-0.637C340.382,444.311,340.221,442.623,339.759,440.964z"/>
</g>
</svg>
