<?xml version="1.0" encoding="utf-8"?>
<!-- Generator: Adobe Illustrator 16.0.0, SVG Export Plug-In . SVG Version: 6.00 Build 0)  -->
<!DOCTYPE svg PUBLIC "-//W3C//DTD SVG 1.1//EN" "http://www.w3.org/Graphics/SVG/1.1/DTD/svg11.dtd">
<svg version="1.1" id="Layer_1" xmlns="http://www.w3.org/2000/svg" xmlns:xlink="http://www.w3.org/1999/xlink" x="0px" y="0px"
	 width="612px" height="792px" viewBox="0 0 612 792" enable-background="new 0 0 612 792" xml:space="preserve">
<circle fill="#5A1F0F" stroke="#5A1F0F" stroke-miterlimit="10" cx="306" cy="396.182" r="132.955"/>
<ellipse fill="#832E1A" stroke="#832E1A" stroke-miterlimit="10" cx="305.137" cy="397.887" rx="103.136" ry="102.842"/>
<path fill="#010101" d="M326.514,456.294c-5.205,0-8.337-3.616-7.808-7.283l15.598-112.542c0.344-2.122-2.313-3.98-5.187-3.98
	h-46.848c-2.875,0-5.531,1.897-5.207,4.088l15.616,112.435l0,0c0.479,3.574-2.603,7.283-7.808,7.283
	c-2.874,0-5.206,1.632-5.206,3.641c0,2.01,2.332,3.642,5.206,3.642h41.643c2.872,0,5.205-1.632,5.205-3.642
	C331.719,457.926,329.386,456.294,326.514,456.294z M301.903,440.113l-13.935-100.342h35.419l-1.515,10.924h-27.138
	c3.966,28.135,12.315,87.367,12.47,88.759C307.477,441.913,302.783,442.5,301.903,440.113z"/>
</svg>
