<?xml version="1.0" encoding="utf-8"?>
<!-- Generator: Adobe Illustrator 16.0.0, SVG Export Plug-In . SVG Version: 6.00 Build 0)  -->
<!DOCTYPE svg PUBLIC "-//W3C//DTD SVG 1.1//EN" "http://www.w3.org/Graphics/SVG/1.1/DTD/svg11.dtd">
<svg version="1.1" id="Layer_1" xmlns="http://www.w3.org/2000/svg" xmlns:xlink="http://www.w3.org/1999/xlink" x="0px" y="0px"
	 width="612px" height="792px" viewBox="0 0 612 792" enable-background="new 0 0 612 792" xml:space="preserve">
<circle fill="#7EC9A0" stroke="#000000" stroke-miterlimit="10" cx="306.136" cy="396.772" r="132.955"/>
<ellipse fill="#A6D498" stroke="#000000" stroke-miterlimit="10" cx="305.273" cy="398.477" rx="103.136" ry="102.842"/>
<path fill="#010101" d="M350.897,354.47h-0.024c2.215-11.1-20.668-21.423-45.688-21.423c-24.995,0-47.234,11.137-45.61,21.437
	l15.023,93.904c1.29,8.63,14.147,14.893,30.574,14.893c17.46,0,28.914-5.486,30.652-14.829
	C335.821,448.45,350.897,354.507,350.897,354.47z M305.185,345.764c18.5,0,29.749,5.779,32.403,8.833
	c-2.654,3.055-13.89,8.833-32.403,8.833c-18.477,0-29.711-5.779-32.338-8.833C275.486,351.554,286.71,345.764,305.185,345.764z
	 M323.158,446.196c-0.399,0.866-4.856,4.367-17.988,4.367c-10.822,0-16.671-3.207-17.932-4.621L275.1,370.738
	c8.041,3.36,18.554,5.423,30.084,5.423c11.57,0,22.109-2.076,30.175-5.436L323.158,446.196z"/>
</svg>
