<?xml version="1.0" encoding="utf-8"?>
<!-- Generator: Adobe Illustrator 16.0.0, SVG Export Plug-In . SVG Version: 6.00 Build 0)  -->
<!DOCTYPE svg PUBLIC "-//W3C//DTD SVG 1.1//EN" "http://www.w3.org/Graphics/SVG/1.1/DTD/svg11.dtd">
<svg version="1.1" id="Layer_1" xmlns="http://www.w3.org/2000/svg" xmlns:xlink="http://www.w3.org/1999/xlink" x="0px" y="0px"
	 width="612px" height="792px" viewBox="0 0 612 792" enable-background="new 0 0 612 792" xml:space="preserve">
<circle fill="#105BA5" stroke="#000000" stroke-miterlimit="10" cx="306" cy="396.182" r="132.955"/>
<ellipse fill="#3775BB" stroke="#000000" stroke-miterlimit="10" cx="305.137" cy="397.887" rx="103.136" ry="102.842"/>
<path fill="#010101" d="M332.54,465.711c-18.972,0-23.188-5.991-23.188-13.979v-13.976c0-5.991,4.216-11.981,10.54-13.979
	c14.757-3.993,23.188-15.974,23.188-29.951c0-15.974-10.54-27.955-10.54-39.936c0-7.986,2.109-13.977,4.217-17.97
	c2.107-3.993,0-5.99-2.107-5.99h-59.024c-2.108,0-4.216,1.998-2.108,5.99c2.108,3.994,4.217,9.984,4.217,17.97
	c0,11.981-10.54,23.961-10.54,39.936c0,13.977,8.432,25.958,23.188,29.951c6.32,1.995,10.534,7.979,10.54,13.966v14.02
	c-0.01,7.97-4.24,13.947-23.188,13.947c-2.327,0-4.217,1.789-4.217,3.992c0,2.204,1.89,3.994,4.217,3.994h54.807
	c2.326,0,4.217-1.79,4.217-3.994C336.757,467.5,334.866,465.711,332.54,465.711z M290.216,349.899
	c0.098,1.322,0.165,2.652,0.165,3.993c0,7.796-2.824,14.713-5.554,21.402c-2.564,6.278-4.986,12.209-4.986,18.534
	c0,6.373,2.563,11.61,7.026,15.065c2.11,1.634,0.188,4.562-2.432,3.227c-5.57-4.17-8.81-10.645-8.81-18.292
	c0-7.071,2.68-13.631,5.27-19.973c2.591-6.348,5.27-12.911,5.27-19.962c0-1.341-0.052-2.673-0.158-3.993h-0.004
	c-0.33-4.173-1.171-8.21-2.508-11.98h43.286c-1.335,3.77-2.178,7.808-2.505,11.98H290.216z"/>
</svg>
