<?xml version="1.0" encoding="utf-8"?>
<!-- Generator: Adobe Illustrator 16.0.0, SVG Export Plug-In . SVG Version: 6.00 Build 0)  -->
<!DOCTYPE svg PUBLIC "-//W3C//DTD SVG 1.1//EN" "http://www.w3.org/Graphics/SVG/1.1/DTD/svg11.dtd">
<svg version="1.1" id="Layer_1" xmlns="http://www.w3.org/2000/svg" xmlns:xlink="http://www.w3.org/1999/xlink" x="0px" y="0px"
	 width="612px" height="792px" viewBox="0 0 612 792" enable-background="new 0 0 612 792" xml:space="preserve">
<circle fill="#EF60A3" stroke="#EF60A3" stroke-miterlimit="10" cx="306.136" cy="396.772" r="132.955"/>
<ellipse fill="#F499C1" stroke="#F499C1" stroke-miterlimit="10" cx="305.273" cy="398.477" rx="103.136" ry="102.842"/>
<path fill="#010101" d="M338.609,463.81c-12.041,0-24.082-5.965-24.082-13.919v-29.828c0-11.932,32.109-31.816,32.109-55.678
	c0-19.885-4.013-31.816-4.013-31.816c-0.859-2.201-3.599-3.977-8.028-3.977h-56.191c-4.431,0-7.119,1.776-8.027,3.977
	c0,0-4.014,11.931-4.014,31.816c0,23.862,32.109,43.747,32.109,55.678v29.828c0,7.954-12.041,13.919-24.082,13.919
	c-4.431,0-8.027,1.782-8.027,3.977s3.596,3.978,8.027,3.978h64.218c4.429,0,8.027-1.783,8.027-3.978S343.038,463.81,338.609,463.81z
	 M299.3,396.035c-8.284-9.544-16.881-20.217-16.881-31.651c0-6.124,0.397-11.472,0.93-15.906v-0.002
	c0.656-5.421,1.518-9.487,2.125-11.931h42.052c0.603,2.446,1.465,6.514,2.123,11.931h-38.252c-0.537,4.414-0.951,9.747-0.951,15.908
	c0,10.562,8.132,20.742,16.055,29.879C308.922,396.986,301.866,398.555,299.3,396.035z"/>
</svg>
